<?xml version="1.0" encoding="utf-8"?>
<!-- Generator: Adobe Illustrator 27.5.0, SVG Export Plug-In . SVG Version: 6.00 Build 0)  -->
<svg version="1.1" xmlns="http://www.w3.org/2000/svg" xmlns:xlink="http://www.w3.org/1999/xlink" x="0px" y="0px"
	 viewBox="0 0 500 500" style="enable-background:new 0 0 500 500;" xml:space="preserve">
<g id="BACKGROUND">
	<rect style="fill-rule:evenodd;clip-rule:evenodd;fill:#FFFFFF;" width="500" height="500"/>
</g>
<g id="OBJECTS">
	<g>
		<text transform="matrix(1 0 0 1 115.1309 421.1455)"><tspan x="0" y="0" style="fill:#C10016; font-family:'OpenSans-Extrabold'; font-size:54.0876px; letter-spacing:-4;">C</tspan><tspan x="30.772" y="0" style="fill:#C10016; font-family:'OpenSans-Extrabold'; font-size:54.0876px; letter-spacing:-4;">HEF</tspan><tspan x="118.069" y="0" style="fill:#20201E; font-family:'OpenSans-Extrabold'; font-size:54.0876px; letter-spacing:-4;"> </tspan><tspan x="127.792" y="0" style="fill:#000005; font-family:'OpenSans-Extrabold'; font-size:54.0876px; letter-spacing:-4;">LOGO</tspan></text>
		<text transform="matrix(1 0 0 1 181.551 442.2131)"><tspan x="0" y="0" style="fill:#000005; font-family:'OpenSans'; font-size:18.3473px; letter-spacing:2;">t</tspan><tspan x="9.413" y="0" style="fill:#000005; font-family:'OpenSans'; font-size:18.3473px; letter-spacing:2;">agline here</tspan></text>
		<g>
			
				<ellipse transform="matrix(0.7071 -0.7071 0.7071 0.7071 -93.0952 249.4906)" style="fill-rule:evenodd;clip-rule:evenodd;fill:#DC9118;" cx="254.614" cy="237.121" rx="118.578" ry="118.578"/>
			<g>
				<g>
					<g>
						<path style="fill-rule:evenodd;clip-rule:evenodd;fill:#000005;" d="M226.407,112.426c-3.937-2.717-7.574-5.62-10.605-9.207
							c-4.782-5.66-7.579-12.014-7.068-19.608c0.733-10.917,10.645-20.729,21.21-20.278c3.193,0.137,4.75-0.701,6.648-3.117
							c4.583-5.833,11.101-8.822,18.175-10.542c10.19-2.478,20.232-2.199,29.913,2.229c6.958,3.184,11.989,8.264,14.668,15.515
							c0.355,0.959,0.605,1.418,1.85,1.032c13.179-4.09,27.62,4.732,30.15,18.363c1.075,5.787,0.317,11.36-2.227,16.647
							c-0.695,1.443-0.66,2.073,0.752,3.237c3.656,3.014,5.593,7.142,5.961,11.9c0.625,8.069-1.844,15-8.259,20.084
							c-5.97,4.732-12.657,4.425-19.432,1.849c-1.17-0.445-2.264-1.089-3.406-1.607c-0.382-0.173-0.807-0.753-1.229-0.105
							c-0.519,0.791-1.195,1.503-1.392,2.461c-0.019,0.083,0.455,0.34,0.727,0.399c5.87,1.3,8.884,7.857,6.435,14.293
							c-1.496,3.935-4.395,6.669-7.92,8.79c-2.215,1.334-4.596,2.298-7.07,3.058c-1.466,0.45-2.906,0.768-4.405,0.264
							c-0.881-0.297-1.273-0.083-1.399,0.905c-0.291,2.259-0.664,4.51-1.074,6.751c-0.154,0.845,0.098,1.125,0.912,1.351
							c2.074,0.576,4.094,1.347,6.169,1.93c1.402,0.394,2.033,1.212,2.271,2.639c0.62,3.725,1.421,7.419,2.037,11.145
							c0.169,1.022,0.616,1.363,1.543,1.621c10.68,2.965,21.332,6.029,32.025,8.938c2.276,0.619,3.805,1.804,4.869,3.848
							c1.833,3.518,3.161,7.238,4.554,10.932c3.167,8.401,5.947,16.955,10.066,24.968c0.792,1.542,1.696,3.034,2.665,4.471
							c0.699,1.036,1.541,1.964,2.763,2.501c4.26,1.877,6.984,4.895,6.733,9.821c-0.266,5.193,1.28,9.867,3.544,14.443
							c1.216,2.459,1.973,5.141,3.022,7.688c3.436,8.348,1.78,16.272-2.202,23.868c-4.259,8.124-11.085,13.754-18.819,18.382
							c-6.609,3.957-13.65,6.961-20.977,9.293c-1.299,0.414-2.082,1.036-2.223,2.395c-0.013,0.12-0.04,0.238-0.072,0.354
							c-1.972,7.116-2.019,7.152-9.197,8.845c-4.434,1.045-8.853,2.156-13.299,3.148c-4.956,1.106-0.244,15.368-2.212,17.82
							c-0.313,0.389-2.659-10.916-3.312-10.685c-12.551,4.453-25.251,9.315-39.329,9.315c-20.734,0-40.24-5.258-57.259-14.511
							c-0.433-0.236-0.663,3.38-1.093,3.139c-0.344-0.192-0.89-4.24-1.232-4.436c-5.238-2.999-10.228-6.383-14.933-10.111
							c-0.79-0.627-3.873,7.661-4.647,7.015c1.244-11.759,3.962-22.455,5.674-34.079c0.321-2.183,0.215-4.354-0.21-6.447
							c-1.204-5.936-0.166-11.702,0.96-17.486c0.341-1.76,0.648-3.525,1.052-5.736c-2.887,3.123-5.374,6.028-8.083,8.706
							c-7.492,7.401-16.123,13.183-25.654,17.642c-4.477,2.096-8.572,1.526-12.429-1.546c-7.486-5.963-13.406-13.173-17.645-21.765
							c-2.1-4.257-1.665-8.62-0.671-13.022c1.18-5.226,3.116-10.184,5.408-15.005c0.384-0.807,0.35-1.322-0.149-2.075
							c-1.827-2.752-3.451-5.607-4.103-8.924c-0.354-1.798-0.072-3.432,0.718-5.051c1.719-3.523,4.013-6.675,6.275-9.849
							c0.377-0.53,0.756-1.057,1.214-1.698c-4.588-0.789-9.058-1.469-13.491-2.338c-9.376-1.836-18.576-4.248-27.031-8.895
							c-2.91-1.599-5.638-3.45-7.735-6.078c-2.938-3.684-2.751-7.462,0.59-10.785c3.286-3.268,7.504-4.876,11.782-6.307
							c3.813-1.275,7.733-2.168,11.698-2.808c0.976-0.158,1.427-0.573,1.812-1.4c2.147-4.618,4.633-9.061,7.022-13.556
							c2.082-3.916,5.236-6.476,9.16-8.266c7.559-3.45,15.598-5.034,23.769-6.068c2.497-0.316,5.015-0.495,7.527-0.657
							c0.829-0.053,1.061-0.272,1.118-1.145c0.346-5.375,4.19-8.835,9.188-8.373c4.694,0.434,7.953,4.681,7.331,9.734
							c-0.153,1.245,0.323,1.481,1.346,1.704c7.591,1.652,14.872,4.15,21.624,8.065c3.076,1.785,5.892,3.906,8.549,6.267
							c3.44,3.055,5.517,6.88,6.663,11.279c0.318,1.217,0.795,2.395,1.067,3.619c0.182,0.819,0.587,0.931,1.28,0.78
							c2.752-0.602,5.508-1.189,8.261-1.785c0.578-0.126,1.081-0.357,0.789-1.087c-0.486-1.213,0.301-1.713,1.138-2.285
							c1.684-1.149,3.314-2.38,4.986-3.548c0.634-0.442,0.738-0.792,0.382-1.589c-4.801-10.76-7.516-22.107-9.137-33.722
							c-0.607-4.348,0.709-8.583,1.489-12.824c0.191-1.038,0.18-1.988-0.097-3.003c-0.881-3.236-1.596-6.512-2.319-9.789
							c-0.973-4.408,0.517-7.741,3.734-10.57C225.211,113.587,225.757,113.039,226.407,112.426z"/>
						<path style="fill-rule:evenodd;clip-rule:evenodd;fill:#FFFFFF;" d="M243.799,230.36c2.563,4.603,5.281,8.876,8.931,12.482
							c2.433,2.406,5.196,4.2,8.511,5.181c5.408,1.599,8.918,3.953,14.206,5.883c0.731,0.267,0.962,0.681,1.055,1.424
							c0.592,4.762,0.606,4.748-4.016,6.221c-3.993,1.273-6.332,2.653-10.351,3.835c-2.232,0.656-3.282,2.155-3.554,4.258
							c-0.348,2.694,0.007,5.307,1.869,7.45c0.499,0.575,0.378,0.978,0.206,1.576c-0.945,3.267-0.449,6.196,2.298,8.441
							c0.597,0.487,0.576,0.886,0.446,1.517c-0.42,2.042,0.061,3.824,1.775,5.123c0.653,0.496,1.003,0.984,0.619,1.807
							c-0.096,0.205-0.056,0.473-0.076,0.712c-0.584,6.595,0.524,8.271,6.836,10.049c1.784,0.503,3.621,0.841,5.45,1.147
							c1.832,0.309,3.491,0.039,4.436-1.864c0.125-0.253,0.268-0.591,0.626-0.565c2.239,0.154,4.383-0.59,6.598-0.688
							c1.33-0.06,1.197,0.889,1.267,1.697c-1.372,10.173,1.185,18.989,0.913,25.098c-0.382,8.576-6.672,13.08-8.382,21.516
							c-0.084,0.421,7.85-11.591,9.935-10.596c2.308,1.101,5.011,11.43,4.9,11.89c-0.456,1.905-2.404,3.925-5.013,5.826
							c-10.881,3.245-22.407,4.989-34.343,4.989c-20.835,0-40.427-5.31-57.503-14.646c0.404-8.295,0.805-16.589,1.247-24.883
							c0.329-6.179,1.479-12.267,2.279-18.392c1.686-12.909,3.476-25.806,5.219-38.708c0.852-6.303,1.735-12.6,2.509-18.913
							c0.156-1.274,0.85-1.188,1.72-1.185c5.594,0.02,10.996-0.792,15.888-3.749c5.089-3.076,8.938-7.403,12.304-12.215
							C242.975,231.549,243.342,231.018,243.799,230.36z"/>
						<path style="fill-rule:evenodd;clip-rule:evenodd;fill:#FFFFFF;" d="M329.792,207.059
							c-6.613,6.441-9.237,10.016-10.373,14.431c1.027-1.358,1.764-2.32,2.489-3.291c2.558-3.419,5.209-6.753,8.646-9.358
							c1.959-1.484,2.082-1.484,3.194,0.785c2.217,4.526,3.819,9.301,5.579,14.012c3.116,8.351,5.982,16.811,10.513,24.576
							c-2.282-0.883-3.657-2.538-8.775-10.364c0.852,3.691,2.571,6.922,5.124,9.76c2.555,2.838,5.893,4.517,9.196,6.174
							c2.901,1.452,4.66,3.251,4.516,6.783c-0.116,2.854,0.013,5.793,0.743,8.585c1.55,5.928,1.556,12.216,4.193,17.89
							c0.168,0.361,0.125,0.82,0.199,1.362c0.625-2.05,0.247-3.965-0.141-5.874c-0.38-1.869-0.791-3.732-0.846-5.713
							c0.622,1.596,1.479,3.142,1.819,4.794c0.792,3.823,1.122,7.723,1.09,11.63c-0.051,5.912-2.69,10.746-6.599,14.948
							c-6.809,7.319-14.91,12.572-24.677,15.05c-2.522,0.639-2.906,0.839-5.502,0.298c-1.319-0.275-1.874-0.757-1.795-2.242
							c0.491-9.176-1.585-18.352-2.413-27.52c-0.453-5.016-1.898-9.741-3.898-14.325c-0.234-0.539-0.448-1.088-0.716-1.735
							c4.704-0.201,9.154-1.19,13.633-1.979c8.04-1.416,14.869,1.252,21.082,6.097c0.229,0.179,0.447,0.37,1.032,0.858
							c-0.725-1.815-1.66-2.912-2.771-3.897c-1.727-1.535-3.75-2.581-5.845-3.49c-0.79-0.342-1.3-0.751-1.349-1.682
							c-0.116-2.159,1.916-4.655,4.018-5.011c1.647-0.278,3.307-0.23,5.421-0.24c-1.375-1.122-2.633-1.017-3.782-1.071
							c-4.139-0.194-7.819,1.344-11.553,2.929c-5.475,2.322-11.159,2.554-16.83,0.6c-2.555-0.88-4.232-2.863-5.712-5.023
							c-7.906-11.549-8.805-23.772-3.524-36.591c0.115-0.277,0.232-0.552,0.362-0.822c0.15-0.313,0.461-0.66,0.035-0.934
							c-0.476-0.308-0.587,0.227-0.758,0.469c-4.56,6.413-7.918,13.383-9.723,21.066c-0.215,0.915-0.381,1.841-0.65,2.744
							c-0.071-4.944-0.406-9.912,1.767-14.708c-1.447,0.772-2.036,2.009-2.296,4.324c-0.186,1.645-0.242,3.323-0.911,5.057
							c-0.267-2.406-0.513-4.623-0.759-6.841c-1.146,5.605-1.428,11.225-1.129,16.827c0.216,4.05-0.139,6.075-2.478,9.396
							c-0.767-0.69-1.2-1.595-1.654-2.468c-1.853-3.56-3.178-5.888-4.845-9.536c-1.583-3.471-2.994-6.809-2.171-10.53
							c0.339-1.534,1.036-3.472-0.473-4.553c-1.584-1.137-3.351,0.004-4.877,0.783c-3.202,1.634-5.229,4.256-6.142,8.118
							c-1.138-4.089-2.149-7.839-3.639-11.437c-1.333-3.222-2.889-6.309-4.969-9.129c-1.676-2.269-0.646-7.954,1.762-9.857
							c2.31-1.829,4.896-3.246,7.427-4.737c5.112-3.014,10.34-5.842,15.091-9.43c1.532-1.158,3.051-2.347,4.044-4.047
							c0.275-0.471,0.558-0.665,1.154-0.496C309.473,201.343,319.602,204.189,329.792,207.059z"/>
						<path style="fill-rule:evenodd;clip-rule:evenodd;fill:#EDCBAA;" d="M281.809,168.349
							c-6.107,5.244-12.066,10.645-18.564,15.404c-1.98,1.45-4.083,2.735-6.126,4.103c-6.211,4.16-16.66,2.262-21.676-2.786
							c-1.613-1.622-2.353-3.758-3.12-5.817c-3.401-9.124-5.812-18.52-7.262-28.148c-0.544-3.618,0.191-7.169,0.934-10.707
							c1.383-6.582,1.852-13.285,2.6-19.953c0.214-1.903,0.707-3.773,0.974-5.673c0.15-1.075,0.749-1.625,1.71-1.796
							c15.159-2.704,30.085-2.675,44.442,3.861c3.666,1.669,7.088,3.749,10.379,6.072c0.942,0.666,1.068,1.271,0.852,2.347
							c-1.688,8.361-2.031,16.781-0.68,25.221c0.408,2.545,0.902,2.611,2.863,0.954c2.216-1.874,3.822-4.311,5.93-6.279
							c0.613-0.573,1.272-1.095,1.91-1.642c0.569-0.489,1.014-0.7,1.411,0.247c0.276,0.656,0.982,0.851,1.683,0.799
							c4.634-0.342,8.101,4.129,6.474,9.537c-0.873,2.9-2.766,5.006-5.099,6.78c-2.714,2.064-5.831,3.302-9.082,4.194
							c-1.418,0.389-2.687-0.247-3.893-0.994c-1.579-0.978-2.764-0.429-2.838,1.396c-0.221,5.483-1.721,10.773-2.368,16.189
							c-0.261,2.186-0.849,4.354-0.394,6.59c0.125,0.612-0.417,0.959-0.741,1.361c-2.776,3.434-6.136,6.23-9.812,8.774
							c3.365-6.254,5.417-12.975,7.34-19.747c-0.965,0.944-1.216,2.23-1.672,3.405c-2.146,5.523-4.115,11.121-7.388,16.136
							c-1.403,2.151-3.059,3.961-5.324,5.233c-1.985,1.114-3.944,2.292-5.812,3.59c-2.947,2.051-6.28,2.471-9.859,2.69
							c0.221-1.599,0.95-3.041,0.535-4.717c-1.096,0.649-1.118,1.891-1.71,2.758c-0.403,0.592-0.077,1.811-1.16,1.761
							c-1.116-0.052-2.508-0.19-3.05-1.248c-1.946-3.795-4.622-7.343-4.5-11.987c0.621-0.105,0.917,0.416,1.306,0.693
							c2.627,1.862,5.483,3.196,8.662,3.78c2.226,0.409,4.244,0.049,6.071-1.45C266.357,190.583,274.811,180.092,281.809,168.349z"
							/>
						<g>
							<path style="fill-rule:evenodd;clip-rule:evenodd;fill:#FFFFFF;" d="M232.236,134.315c1.217,2.366,0.879,2.501,2.704,3.042
								c1.825,0.541,9.06-0.068,9.06-0.068s1.285-0.743,1.15-1.217c-0.136-0.473-1.961-3.651-1.961-3.651l-8.654-0.203
								C234.535,132.219,233.927,132.895,232.236,134.315z"/>
							<path style="fill-rule:evenodd;clip-rule:evenodd;fill:#FFFFFF;" d="M260.903,136.141c1.015,1.961,3.718,3.178,3.718,3.178
								l8.485,0.058l3.414-1.951c0,0-2.907-2.771-4.462-3.38c-1.556-0.608-7.911-0.879-8.722-0.743
								C262.524,133.436,260.903,136.141,260.903,136.141z"/>
						</g>
						<path style="fill-rule:evenodd;clip-rule:evenodd;fill:#FFFFFF;" d="M325.797,123.961c-3.874,1.875-6.821,0.563-9.329-2.219
							c-3.741-4.149-5.686-9.253-7.478-14.421c-1.081-3.115-1.873-6.314-2.61-9.74c-0.933,1.279-1.544,2.592-2.631,3.539
							c-1.656,1.443-3.23,1.341-4.685-0.317c-1.83-2.087-1.644-4.502-1.196-6.985c0.536-2.973,0.293-3.23-2.633-2.622
							c-4.73,0.984-9.246-0.013-13.855-1.042c-10.091-2.252-14.697-9.099-16.391-18.622c-0.205-1.158-0.396-2.319-0.661-3.884
							c-2.847,4.829-5.054,9.505-6.905,14.351c-0.749,1.959-1.933,3.532-3.562,4.864c-2.135,1.744-4.692,0.914-7.394,1.608
							c3.08-3.563,4.195-7.553,5.268-11.696c-0.987,0.128-1.037,0.847-1.235,1.339c-2.407,6.007-7.09,9.571-13.079,11.073
							c-3.469,0.87-6.981-0.494-9.914-2.734c-1.98-1.513-3.398-3.54-4.81-5.559c-0.369-0.528-0.73-1.061-1.195-1.738
							c-0.09,3.068,2.899,8.347,6.577,11.858c-3.542,0.243-6.99-1.974-9.695-6.405c-3.988,9.082,0.449,15.652,6.139,22.234
							c-9.389-6.682-14.849-16.923-11.834-26.87c2.329-7.686,9.947-13.745,17.37-13.602c0.301,0.006,0.601,0.012,0.899,0.041
							c2.52,0.255,2.52,0.257,2.296,2.727c-0.426,4.717-0.096,6.665,1.518,8.934c0.373-0.01,0.316-0.313,0.286-0.511
							c-1.364-8.997,2.083-15.84,9.789-20.286c12.478-7.2,25.576-8.144,38.822-2.324c7.132,3.134,11.797,8.712,13.524,16.473
							c0.567,2.549,0.341,5.137,0.143,7.712c-0.032,0.411-0.249,0.952,0.253,1.108c0.742,0.23,0.679-0.563,0.786-0.918
							c0.5-1.664,0.985-3.349,0.932-5.11c-0.041-1.34,0.585-2.002,1.831-2.442c7.654-2.708,14.477-1.039,20.4,4.18
							c8.574,7.554,8.974,18.571,3.719,28.234c-0.418,0.768-0.931,0.76-1.609,0.751c-2.218-0.03-4.337,0.39-6.748,1.519
							c1.768,0.552,3.201,0.487,4.551,0.434c3.7-0.145,6.3,1.685,8.38,4.416c6.756,8.87,1.569,24.324-9.146,27.348
							c-0.601,0.17-1.232,0.233-1.941,0.211C324.952,135.76,326.854,130.682,325.797,123.961z"/>
						<path style="fill-rule:evenodd;clip-rule:evenodd;fill:#AFB0B0;" d="M177.239,203.717c-28.23-0.41-36.834-1.631-62.171-10.814
							c-1.115-0.404-1.129-0.806-0.689-1.766c2.094-4.579,3.327-7.549,5.813-11.928c1.904-3.354,4.858-5.399,8.224-6.971
							c6.989-3.264,14.461-4.663,22.044-5.563c14.38-1.707,28.066,0.885,41.163,6.869c2.009,0.918,3.846,2.206,5.833,3.177
							c10.5,5.133,10.54,15.708,9.761,23.733c-0.113,1.161-0.83,1.402-1.834,1.502c-3.044,0.304-6.073,0.765-9.121,1.011
							C189.86,203.484,183.442,203.657,177.239,203.717z"/>
						<path style="fill-rule:evenodd;clip-rule:evenodd;fill:#FFFFFF;" d="M133.425,235.003c2.828,4.734,7.096,7.185,11.888,9.59
							c-0.36-1.048-0.96-1.424-1.463-1.855c-2.189-1.872-4.399-3.72-6.58-5.601c-0.405-0.348-0.737-0.789-1.069-1.213
							c-2.135-2.731-1.122-5.285,2.311-5.847c0.414-0.068,0.826-0.144,1.651-0.289c-1.948,2.58-0.071,3.94,1.423,5.372
							c4.864,4.662,10.133,8.806,15.804,12.458c3.075,1.98,6.088,2.322,9.527,0.935c4.787-1.932,9.445-4.088,13.908-6.671
							c0.507-0.293,1.008-0.597,1.723-1.021c-0.13,5.423-0.185,10.605-1.15,15.735c-0.188,1-0.865,1.549-1.686,1.618
							c-4.036,0.34-7.581,2.111-11.206,3.666c-1.644,0.706-3.274,1.446-4.884,2.264c3.221-0.345,6.296-1.26,9.365-2.254
							c1.321-0.43,2.996-1.695,3.937-0.861c0.746,0.661-0.304,2.549-0.649,3.861c-0.683,2.604-1.462,5.181-2.253,7.753
							c-0.958,3.111-2.786,5.666-5.09,7.937c-3.506,3.457-6.908,7.024-10.974,9.853c-0.689,0.481-1.338,1.057-0.68,1.898
							c0.663,0.847,1.401,0.262,2.041-0.19c4.24-2.998,7.857-6.686,11.462-10.384c0.461-0.472,0.899-0.964,1.451-1.383
							c-1.262,3.522-3.897,6.221-5.772,9.41c1.803-0.712,3.014-2.076,4.14-3.497c2.611-3.293,4.282-7.039,5.27-11.117
							c1.071-4.425,2.247-8.824,3.29-13.254c0.256-1.09,1.101-1.431,1.851-1.78c1.659-0.771,2.357-2.051,2.631-3.768
							c0.719-4.518,0.898-9.07,1.006-13.631c0.017-0.719,0.04-1.439,0.114-2.153c0.234-2.253-0.024-4.221-2.593-5.046
							c-0.74-0.238-0.847-1.092-1.284-1.468c3.104-2.479,6.733-2.242,10.35-2.115c-0.597,6.174-1.062,12.35-1.817,18.515
							c-1.743,14.212-8.288,25.982-17.531,36.534c-4.27,4.876-8.933,9.26-14.979,11.829c-4.84,2.058-9.878,2.909-15.097,1.534
							c-1.891-0.497-3.502-1.422-4.835-2.93c-3.592-4.061-6.796-8.373-9.346-13.179c-2.04-3.845-1.644-7.77-0.672-11.736
							c0.756-3.084,1.78-6.088,3.017-9.015c0.201-0.475,0.156-1.248,1.167-0.807c3.317,1.448,6.86,1.734,10.411,1.611
							c4.39-0.152,8.739,0.608,13.12,0.428c0.541-0.021,1.415,0.279,1.502-0.536c0.098-0.919-0.867-0.669-1.36-0.726
							c-5.335-0.598-10.52-1.693-15.356-4.162c-5.146-2.628-8.72-6.612-10.852-11.973c-0.765-1.927-0.814-3.649,0.299-5.472
							C130.307,239.579,131.729,237.312,133.425,235.003z"/>
						<path style="fill-rule:evenodd;clip-rule:evenodd;fill:#C4C4C4;" d="M172.556,246.133c2.817-1.292,5.578-2.693,8.268-4.25
							c0.507-0.293,1.008-0.597,1.723-1.021c-0.13,5.423-0.185,10.605-1.15,15.735c-0.188,1-0.865,1.549-1.686,1.618
							c-4.036,0.34-7.581,2.111-11.206,3.666c-0.579,0.249-1.156,0.502-1.731,0.761c2.833-2.003,5.781-5.073,5.781-5.073V246.133
							L172.556,246.133z M164.28,264.066c-0.435,0.167-0.837,0.264-1.189,0.264c-2.975,0,8.383,0.54,8.383,0.54l-8.896,21.859
							c2.191-1.968,4.254-4.078,6.354-6.149c2.304-2.271,4.132-4.825,5.09-7.937c0.791-2.572,1.57-5.149,2.253-7.753
							c0.345-1.313,1.395-3.2,0.649-3.861c-0.941-0.834-2.616,0.432-3.937,0.861C170.127,262.817,167.263,263.674,164.28,264.066
							L164.28,264.066z M157.779,292.72l-7.413,8.048c2.219-0.35,4.4-1.023,6.542-1.935c6.045-2.569,10.708-6.953,14.979-11.829
							c9.243-10.553,15.788-22.322,17.531-36.534c0.756-6.165,1.22-12.341,1.817-18.515c-3.616-0.128-7.246-0.364-10.35,2.115
							c0.437,0.376,0.544,1.23,1.284,1.468c2.568,0.826,2.827,2.794,2.593,5.046c-0.074,0.715-0.097,1.435-0.114,2.153
							c-0.109,4.561-0.287,9.113-1.006,13.631c-0.274,1.718-0.972,2.997-2.631,3.768c-0.75,0.35-1.595,0.69-1.851,1.78
							c-1.044,4.43-2.219,8.829-3.29,13.254c-0.988,4.078-2.659,7.824-5.27,11.117c-1.126,1.421-2.337,2.785-4.14,3.497
							c1.875-3.189,4.511-5.888,5.772-9.41c-0.552,0.419-0.99,0.911-1.451,1.383c-3.605,3.698-7.222,7.386-11.462,10.384
							C158.837,292.482,158.299,292.898,157.779,292.72z"/>
						<path style="fill-rule:evenodd;clip-rule:evenodd;fill:#FFFFFF;" d="M198.758,259.235c-2.344,4.251-3.967,8.555-6.471,12.418
							c3.265-13.244,1.141-26.417-0.176-39.749c7.188-0.438,14.587-0.885,22.231-2.251c-1.889,2.848-3.498,5.526-4.701,8.421
							c-0.665,1.603-1.328,3.209-2.07,4.776c-0.453,0.96-0.872,2.003-2.091,2.314c-0.635,0.162-0.828,0.658-0.721,1.26
							c0.12,0.667,0.677,0.791,1.22,0.863c1.128,0.149,2.26,0.374,3.389,0.37c1.169-0.003,1.374,0.431,1.222,1.506
							c-0.835,5.88-1.608,11.768-2.4,17.654c-1.743,12.962-3.517,25.92-5.214,38.889c-0.91,6.955-2.192,13.869-2.525,20.897
							c-0.354,7.455-0.712,14.909-1.073,22.364c-6.042-1.914-11.973-2.451-16.672-6.173c1.931-8.05,5.299-20.152,6.642-28.634
							c1.354,3.441,1.94,6.621,2.283,9.873c0.351,3.335-0.357,6.514-1.231,9.697c1.834-2.823,2.814-5.89,2.905-9.244
							c0.126-4.638-1.106-9.02-2.477-13.376c-2.019-6.413-2.49-12.889-1.055-19.505c1.181-5.446,2.213-10.924,3.267-16.397
							c0.13-0.681,0.441-1.225,0.77-1.792c2.229-3.857,4.058-7.876,4.998-12.258C198.917,260.642,199.18,260.145,198.758,259.235z"
							/>
						<path style="fill-rule:evenodd;clip-rule:evenodd;fill:#FFFFFF;" d="M230.335,110.971c1.31-5.899,2.564-11.509,3.797-17.124
							c0.161-0.733,0.532-1.021,1.284-1.224c28.09-7.583,56.394,1.962,72.98,27.438c0.374,0.573,0.603,1.021,0.255,1.769
							c-1.864,4.015-3.647,8.068-5.533,12.274c-1.548-2.198-2.936-4.323-4.485-6.322c-1.548-1.996-3.563-3.499-5.833-4.727
							c2.947,3.301,5.91,6.579,7.8,10.645c-2.603-2.837-5.152-5.714-8.004-8.308c-11.799-10.737-25.769-15.842-41.613-16.178
							C244.125,109.067,237.337,109.661,230.335,110.971z"/>
						<path style="fill-rule:evenodd;clip-rule:evenodd;fill:#AFB0B0;" d="M205.902,204.183c-1.271,2.882-3.263,5.08-5.612,6.966
							c-5.54,4.448-12.038,7.103-18.522,9.773c-0.369,0.153-0.823,0.138-1.237,0.137c-18.583-0.058-37.034-1.494-55.23-5.432
							c-4.504-0.975-8.961-2.183-13.103-4.302c-0.586-0.299-1.163-0.619-1.717-0.974c-2.94-1.884-3.108-2.305-1.965-5.509
							c0.946-2.649,1.967-5.271,2.943-7.909c0.256-0.691,0.52-1.079,1.418-0.733c15.912,6.142,32.567,8.329,49.459,9.15
							c14.098,0.684,28.189,0.724,42.222-1.16C204.958,204.136,205.37,204.183,205.902,204.183z"/>
						<path style="fill-rule:evenodd;clip-rule:evenodd;fill:#AFB0B0;" d="M215.927,205.017c5.995,2.155,11.714,3.727,16.48,7.663
							c0.551,0.456,1.068,0.97,1.517,1.525c1.964,2.43,1.77,4.521-0.626,6.575c-1.939,1.663-4.234,2.694-6.612,3.555
							c-7.503,2.72-15.334,3.823-23.217,4.618c-8.729,0.879-17.492,1.144-26.254,0.939c-23.631-0.551-47.035-2.86-69.826-9.563
							c-5.237-1.54-10.342-3.444-15.119-6.132c-1.781-1.003-3.461-2.15-4.889-3.642c-2.649-2.768-2.47-5.203,0.602-7.562
							c1.973-1.515,4.228-2.466,6.55-3.306c4.751-1.719,8.544-2.68,13.685-3.492c-1.169,3.292-2.194,6.455-3.423,9.537
							c-0.743,1.863-0.217,3.248,1.045,4.551c2.057,2.124,4.674,3.314,7.372,4.344c7.209,2.751,15.873,4.573,23.457,5.726
							c15.93,2.423,31.966,3.479,48.074,3.259c8.519-0.117,17.035-0.479,25.374-2.49c2.162-0.521,4.276-1.193,6.105-2.528
							c1.543-1.126,2.23-2.46,1.673-4.495C217.109,211.23,216.617,208.279,215.927,205.017z"/>
						<path style="fill-rule:evenodd;clip-rule:evenodd;fill:#D98B58;" d="M287.178,262.938c-1.424-1.506-3.276-2.042-5.191-2.376
							c-0.799-0.139-1.265-0.357-1.379-1.25c-0.476-3.711-0.656-7.432,0.009-11.123c0.734-4.071,3.357-6.467,7.349-7.705
							c0.378,1.587-0.132,3.03-0.373,4.436c-0.453,2.632-0.19,5.105,0.765,7.582c2.094,5.43,4.384,10.774,7.466,15.718
							c3.47,5.566,5.518,11.613,6.658,18.02c0.229,1.298,0.346,2.643,0.784,3.868c0.671,1.875-0.028,3.176-1.261,4.489
							c-1.539,1.641-2.953,3.398-5.008,4.711c0.172-0.94,1.083-1.489,0.741-2.416c-11.855,6.495-13.538,6.546-21.818,4.71
							c-0.094,0.665,0.73,0.667,0.894,1.293c-2.059-0.615-5.413-0.522-6.746-2.116c-0.803-0.959-0.548-3.663-0.021-4.955
							c0.646-1.588,5.844-2.183,7.662-2.386c2.029-0.228,2.505-0.755,2.148-2.682c-3.782,1.148-7.652,2.42-11.543,2.105
							c-1.164-0.095-2.7-6.169-1.044-6.421c2.614-0.399,6.595-1.683,9.069-2.58c2.074-0.753,3.043-3.233-2.006-1.653
							c-2.523,0.789-7.152,2.644-9.872,2.407c-0.978-0.085-1.463-3.511-1.342-5.005c0.093-1.124,0.809-1.4,1.583-1.648
							c2.908-0.932,5.818-1.864,8.729-2.789c2-0.634,5.105-5.125-0.486-2.602c-2.667,1.204-5.404,2.267-9.245,2.949
							c-2.033-0.282-2.614-3.641-2.681-5.514c-0.051-1.395,0.472-2.181,1.886-2.608c4.298-1.299,8.533-2.805,12.838-4.08
							c3.385-1.003,6.852-1.129,10.315-0.278C286.386,263.118,286.705,263.394,287.178,262.938z"/>
						<path style="fill-rule:evenodd;clip-rule:evenodd;fill:#FFFFFF;" d="M302.457,275.585c4.315,9.307,7.483,18.843,7.17,29.233
							c0.551-1.076,0.657-7.469,0.289-9.355c-1.236-6.328-1.761-12.843-4.825-18.704c-0.217-0.416-0.284-0.913-0.407-1.375
							c-0.189-0.708,0.007-0.957,0.801-0.848c4.033,0.551,8.1,0.911,11.951,2.395c0.89,0.344,1.466,0.857,1.897,1.721
							c3.296,6.609,4.738,13.637,4.976,20.979c0.347,10.746,0.301,21.476-1.248,32.141c-0.361,2.488-1.21,4.873-2.099,7.231
							c-0.254,0.667-0.575,1.126-1.313,1.296c-4.595,1.059-9.184,2.142-14.11,3.295
							C310.305,320.557,308.117,297.994,302.457,275.585z"/>
						<path style="fill-rule:evenodd;clip-rule:evenodd;fill:#C10016;" d="M291.966,182.676c-1.166,2.601-2.814,4.814-4.348,7.09
							c-1.541,2.29-3.374,4.351-5.253,6.372c4.376-3.086,7.491-7.325,10.528-12.186c0.512,2.788,0.897,5.071,1.364,7.337
							c0.176,0.862-0.171,1.294-0.831,1.753c-4.133,2.877-8.48,5.443-12.441,8.57c-1.585,1.25-3.171,2.499-4.671,3.882
							c6.381-3.122,12.424-6.822,18.41-10.669c0.881,2.656,0.885,2.663-1.454,3.928c-11.218,6.067-22.451,12.105-33.646,18.213
							c-2.543,1.387-5.028,2.499-7.895,1.057c4.59-2.998,9.907-4.749,14.641-7.638c-3.733,0.934-7.323,2.231-10.773,3.915
							c-1.666,0.813-3.345,1.604-4.99,2.458c-0.709,0.367-1.295,0.341-1.655-0.366c-0.402-0.792,0.493-0.818,0.832-1.034
							c6.925-4.402,14.185-8.266,20.923-12.975c4.834-3.378,9.485-6.963,13.224-11.584c1.899-2.347,3.514-4.883,4.176-7.87
							c0.293-1.323,0.858-1.426,1.922-0.925C290.613,182.281,291.256,182.436,291.966,182.676z"/>
						<path style="fill-rule:evenodd;clip-rule:evenodd;fill:#C10016;" d="M276.614,249.449
							c-7.881-10.175-14.619-20.813-26.604-26.064c2.699-0.454,5.233,0.425,11.133,3.854c-1.316-2.148-5.487-4.471-9.148-5.094
							c-0.355-0.06-0.712-0.111-1.068-0.162c-0.555-0.08-0.827-0.311-0.743-0.953c0.09-0.693,0.508-0.739,1.016-0.672
							c7.237,0.96,13.875,3.134,18.091,9.659C273.012,235.777,274.923,242.266,276.614,249.449z"/>
						<path style="fill-rule:evenodd;clip-rule:evenodd;fill:#C10016;" d="M227.165,193.597c2.308,3.088,3.749,6.658,6.095,9.704
							c-1.113-2.464-2.217-4.932-3.346-7.389c-0.275-0.596-0.652-1.143-0.945-1.732c-1.238-2.487-1.234-2.491,0.97-4.118
							c1.009-0.744,2.022-1.48,3.224-2.359c2.828,9.819,7.321,18.748,12.348,27.445c-1.057,0.578-1.582,0.22-2.254-0.633
							c-1.81-2.299-3.518-4.705-5.867-6.566c1.43,2.822,3.476,5.246,5.298,7.913C239.716,215.551,227.016,197.229,227.165,193.597z"
							/>
						<path style="fill-rule:evenodd;clip-rule:evenodd;fill:#C10016;" d="M271.569,246.306c-3.786-2.226-7.831-3.618-11.751-5.313
							c-5.547-2.397-9.26-6.644-11.348-12.308c-0.125-0.337-0.281-0.675-0.325-1.025c-0.093-0.745,0.12-1.508,0.602-2.003
							c0.506-0.52,1.104,0.096,1.596,0.32c5.807,2.644,10.263,6.983,14.358,11.71C267.103,240.462,269.288,243.428,271.569,246.306z
							"/>
						<path style="fill-rule:evenodd;clip-rule:evenodd;fill:#C10016;" d="M211.244,244.367c9.442-6.94,18.066-14.827,29.691-18.146
							c-1.661,2.485-3.743,4.459-5.663,6.563c-1.212,1.328-2.626,2.477-3.796,3.838c-4.49,5.223-10.687,6.517-17.019,7.505
							C213.484,244.278,212.518,244.69,211.244,244.367z"/>
						<path style="fill-rule:evenodd;clip-rule:evenodd;fill:#EDCBAA;" d="M149.683,238.907c2.191,1.057,4.228,0.763,6.376-0.155
							c2.271-0.97,4.659-0.264,6.842,0.531c2.733,0.996,5.374,1.069,8.039,0.006c0.939-0.375,1.285-0.188,1.396,0.813
							c0.345,3.112-0.1,3.917-2.993,5.144c-7.073,2.994-7.612,2.949-13.901-1.508c-1.991-1.414-3.921-2.912-5.879-4.371
							C149.602,239.213,149.643,239.061,149.683,238.907z"/>
						<path style="fill-rule:evenodd;clip-rule:evenodd;fill:#C10016;" d="M210.576,241.942c1.556-4.585,3.629-8.835,6.814-12.489
							c0.411-0.472,0.931-0.529,1.436-0.639c3.754-0.817,7.451-1.813,10.978-3.37c0.141-0.062,0.333-0.007,0.657-0.007
							c-0.699,0.596-1.28,1.093-1.86,1.589c3.455-1.479,6.963-2.672,10.821-2.814C228.343,227.744,219.787,235.329,210.576,241.942z
							"/>
						<path style="fill-rule:evenodd;clip-rule:evenodd;fill:#DC9118;" d="M305.918,263.241c2.828,4.185,6.92,6.895,10.119,10.895
							c-4.326-1.088-8.425-1.505-12.52-1.937c-0.889-0.095-1.287-0.348-0.94-1.33C303.474,268.327,304.533,265.864,305.918,263.241z
							"/>
						<path style="fill-rule:evenodd;clip-rule:evenodd;fill:#FFFFFF;" d="M297.084,318.769c0.22,8.795,0.859,16.853,2.81,24.763
							c0.111,0.45,0.542,1.222-0.158,1.412c-0.807,0.219-0.824-0.708-0.98-1.205c-1.348-4.319-1.89-8.789-2.331-13.264
							c-0.786-7.948-1.003-15.926-1.08-23.908c-0.007-0.611-0.321-1.425,0.783-1.407c1.056,0.016,0.622,0.848,0.645,1.339
							C296.977,310.814,297.194,315.131,297.084,318.769z"/>
						<path style="fill-rule:evenodd;clip-rule:evenodd;fill:#AFB0B0;" d="M166.693,156.941c2.48,0.001,2.648,2.559,2.071,4.974
							c-0.167,0.699-0.469,0.971-1.236,0.864c-2.067-0.288-2.116-0.242-4.193-0.444c-0.605-0.06-0.778-0.302-0.821-0.886
							C162.352,159.227,164.444,156.94,166.693,156.941z"/>
						<path style="fill-rule:evenodd;clip-rule:evenodd;fill:#FFFFFF;" d="M223.862,205.225c-2.373-0.856-5.061-1.823-7.745-2.802
							c-0.6-0.218-2.104-3.634-1.745-4.173c0.446-0.671,1.124-0.427,1.717-0.083c1.352,0.786,2.643,1.672,3.746,2.778
							C221.272,202.386,222.629,203.908,223.862,205.225z"/>
						<path style="fill-rule:evenodd;clip-rule:evenodd;fill:#FFFFFF;" d="M173.298,243.45c1.086-2.041,1.908-3.602,2.75-5.151
							c0.134-0.247,0.401-0.662,0.532-0.635c1.877,0.385,3.795,0.168,5.738,0.32C179.702,240.268,176.697,241.674,173.298,243.45z"
							/>
						<path style="fill-rule:evenodd;clip-rule:evenodd;fill:#C10016;" d="M244.397,222.508c0.238-1.364,0.634-2.675,1.396-3.842
							c0.287-0.44,0.634-0.987,1.267-0.819c0.618,0.164,0.981,0.671,1.055,1.324c0.219,1.941-0.693,3.598-1.368,5.31
							c-0.142,0.358-0.472,0.368-0.722,0.152C245.34,224.042,244.201,223.783,244.397,222.508z"/>
						<path style="fill-rule:evenodd;clip-rule:evenodd;fill:#C10016;" d="M232.637,224.176c1.65-1.323,3.27-2.574,4.32-4.493
							c0.489-0.893,1.797-0.705,2.784-0.761c0.464-0.026,0.305,0.387,0.295,0.655c-0.029,0.715-0.089,1.429-0.089,2.144
							c0,0.46-0.003,0.787-0.625,0.811C236.994,222.624,234.839,223.474,232.637,224.176z"/>
						<path style="fill-rule:evenodd;clip-rule:evenodd;fill:#C10016;" d="M244.109,223.033c-1.337-1.38-1.806-2.749-1.424-4.268
							c0.313-1.242,1.518-1.086,2.694-1.256C244.512,219.233,244.035,220.93,244.109,223.033z"/>
						<path style="fill-rule:evenodd;clip-rule:evenodd;fill:#000005;" d="M218.452,295.234c-0.085,2.288-2.003,4.064-4.274,3.963
							c-2.158-0.097-3.976-2.013-3.939-4.151c0.038-2.215,2.04-4.151,4.217-4.08C216.706,291.039,218.536,292.993,218.452,295.234z"
							/>
						<path style="fill-rule:evenodd;clip-rule:evenodd;fill:#000005;" d="M225.332,255.579c-0.016,2.347-1.792,4.102-4.118,4.067
							c-2.184-0.031-3.965-1.838-3.993-4.05c-0.029-2.268,1.842-4.192,4.071-4.185C223.579,251.421,225.347,253.246,225.332,255.579
							z"/>
						<path style="fill-rule:evenodd;clip-rule:evenodd;fill:#000005;" d="M211.358,344.805c-2.323-0.03-4.086-1.866-3.996-4.162
							c0.087-2.235,1.835-3.898,4.096-3.895c2.349,0.004,4.107,1.766,4.077,4.086C215.506,343.151,213.732,344.837,211.358,344.805z
							"/>
						<path style="fill-rule:evenodd;clip-rule:evenodd;fill:#000005;" d="M301.841,202.66c0.252-0.465,0.612-0.218,0.936-0.142
							c5.316,1.234,10.526,2.81,15.589,4.858c0.442,0.178,0.862,0.414,1.283,0.643c0.471,0.256,1.072,0.505,0.868,1.176
							c-0.208,0.68-0.848,0.529-1.374,0.467c-1.623-0.191-3.155-0.744-4.646-1.355c-4.043-1.655-8.056-3.386-12.073-5.103
							C302.192,203.105,301.798,203.094,301.841,202.66z"/>
						<path style="fill-rule:evenodd;clip-rule:evenodd;fill:#000005;" d="M248.527,172.7c-2.6-0.003-4.728-0.298-6.797-0.957
							c-1.635-0.521-1.865-1.156-0.727-2.342c1.482-1.544,1.96-3.174,1.049-5.203c-0.684-1.522-1.208-3.116-1.79-4.683
							c-0.238-0.645-0.796-1.297-0.12-1.983c0.559-0.567,1.23-0.289,1.858-0.144c3.09,0.712,6.177,1.416,9.348,1.71
							c4.423,0.412,8.721-0.092,12.899-1.591c0.68-0.244,1.42-0.672,2.002-0.046c0.561,0.604,0.174,1.337-0.112,2.011
							c-2.626,6.182-6.564,10.97-13.416,12.675C251.203,172.524,249.666,172.741,248.527,172.7z"/>
						<path style="fill-rule:evenodd;clip-rule:evenodd;fill:#000005;" d="M256.466,124.117c5.041,0.112,10.042-0.708,15.084-0.396
							c4.614,0.286,7.463,3.271,7.482,8.246c-3.119-4.566-7.507-4.21-11.944-3.743c-2.086,0.219-4.174,0.416-6.283,0.247
							C257.572,128.213,256.842,127.524,256.466,124.117z"/>
						<path style="fill-rule:evenodd;clip-rule:evenodd;fill:#000005;" d="M294.776,152.144c1.901-0.498,3.463-0.392,4.481,1.23
							c0.7,1.116,0.427,2.15-0.647,3.218c-0.153-1.113,0.075-2.251-0.989-2.786c-0.614-0.309-1.292-0.244-1.923,0.019
							c-0.889,0.371-1.339,0.694-0.463,1.737c1.689,2.015,0.765,4.435-1.736,4.899c-0.662,0.124-1.366,0.223-1.589-0.685
							c-0.173-0.714,0.178-1.167,0.835-1.364c0.52-0.155,1.146-0.191,1.114-0.919c-0.03-0.691-0.6-1.07-1.153-1.251
							c-1.296-0.422-1.427-1.214-1.025-2.367c0.777-2.227,1.721-4.353,3.424-6.042c1.799-1.783,4.224-2.381,6.067-1.472
							c2.229,1.1,2.887,3.067,2.812,5.384c-0.077,2.363-1.101,4.378-2.348,6.314c-0.453,0.705-1.061,1.09-1.791,0.605
							c-0.689-0.456-0.453-1.149-0.064-1.747c0.725-1.105,1.364-2.244,1.75-3.524c0.284-0.943,0.388-1.886,0.232-2.843
							c-0.358-2.218-2.216-3.081-4.136-1.924C296.358,149.393,295.504,150.524,294.776,152.144z"/>
						<path style="fill-rule:evenodd;clip-rule:evenodd;fill:#000005;" d="M263.435,138.602c0.454,0.048,0.907,0.096,1.583,0.167
							c-0.712-1.39-1.111-2.733-1.084-4.257c-1.2,0.21-1.404,1.277-1.993,1.942c-0.689,0.779-1.229,2.254-2.371,1.815
							c-1.148-0.44-1.216-1.903-1.11-3.54c0.435,0.767,0.696,1.227,0.942,1.663c0.416-0.022,0.581-0.288,0.691-0.562
							c1.202-2.987,3.488-3.818,6.51-3.427c2.726,0.353,5.511,0.332,8.083,1.499c0.65,0.295,0.675,0.396,0.372,1.032
							c-0.169,0.354,0.19,0.492,0.363,0.689c0.829,0.935,1.752,1.8,2.039,3.242c-0.857-0.718-1.718-1.432-2.57-2.154
							c-1.153-0.979-2.413-1.786-3.892-2.143c-0.406-0.098-1.047-0.297-1.279,0.254c-0.237,0.563,0.293,0.977,0.721,1.053
							c2.012,0.357,2.218,0.906,2.076,2.243c-0.029,0.283-0.401,0.782-0.252,0.996c0.282,0.406,1.923,0.001,1.59,0.204
							c-0.869,0.532-4.42,0.923-5.155,0.883C266.866,140.102,264.988,140.01,263.435,138.602z"/>
						<path style="fill-rule:evenodd;clip-rule:evenodd;fill:#000005;" d="M230.164,136.038c0.433-1.557,1.704-2.335,2.728-3.563
							c-0.593,0.098-1.058,0.174-1.457,0.241c-0.236-0.135-0.23-0.197-0.094-0.287c1.135-0.754,2.413-1.044,3.744-1.087
							c1.736-0.057,3.476-0.12,5.212-0.058c3.497,0.125,4.639,0.994,5.792,4.212c0.32,0.896-0.868,2.667-1.792,2.675
							c-0.249,0.002-0.498-0.024-0.575-0.299c-0.085-0.301-0.011-0.58,0.221-0.819c1.618-1.674-0.633-2.381-1-3.526
							c-0.316-0.991-1.648-1.007-2.689-0.908c-0.199,0.019-0.476,0.2-0.549,0.375c-0.132,0.319,0.128,0.553,0.377,0.727
							c0.841,0.583,1.832,0.46,2.733,0.556c0.442,1.063-1.246,1.723-0.466,2.891c0.126,0.19-0.55,0.36-0.859,0.43
							c-1.708,0.385-3.439,0.517-5.172,0.174c-0.653-0.129-1.503-0.173-0.394-1.109c0.596-0.502-0.297-1.066-0.446-1.622
							c-0.565-2.09-0.852-2.166-2.741-0.856C231.868,134.785,231.02,135.419,230.164,136.038z"/>
						<path style="fill-rule:evenodd;clip-rule:evenodd;fill:#000005;" d="M248.744,130.054c0.054,0.534,0.046,1.084,0.174,1.601
							c0.63,2.547,0.365,4.974-0.835,7.313c-1.255,2.445-2.322,5.004-3.761,7.333c-1.23,1.987-0.917,3.687,0.145,5.487
							c0.351,0.593,0.71,1.182,0.943,1.852c-1.785-1.308-3.129-2.93-3.771-5.113c-1.231,1.465-0.272,2.655,0.58,3.866
							c-1.628-0.346-2.515-1.81-1.973-3.393c0.226-0.663,0.599-1.333,1.071-1.847c3.479-3.784,4.674-8.674,6.325-13.301
							c0.697-1.954-0.188-4.138-0.45-6.208c-0.059-0.469-0.161-0.933-0.145-1.433c0.851,1.183,0.865,2.733,1.728,3.899
							L248.744,130.054z"/>
						<path style="fill-rule:evenodd;clip-rule:evenodd;fill:#000005;" d="M229.104,129.738c0.575-4.949,2.017-6.29,6.302-6.004
							c2.675,0.178,5.325,0.697,7.997,0.966c0.87,0.088,0.786,0.519,0.666,1.069c-0.27,1.235-1.115,1.771-2.317,1.842
							c-1.566,0.093-3.107-0.154-4.626-0.457C234.167,126.562,231.391,126.497,229.104,129.738z"/>
						<path style="fill-rule:evenodd;clip-rule:evenodd;fill:#000005;" d="M251.762,175.339c-1.517,2.586-3.439,3.493-5.96,3.194
							c-2.041-0.242-3.375-1.316-4.301-3.634C244.86,176.703,248.19,176.498,251.762,175.339z"/>
						<path style="fill-rule:evenodd;clip-rule:evenodd;fill:#000006;" d="M255.237,153.839c3.041-1.594,1.226-3.981,1.001-6.202
							c1.452,1.431,2.299,3.446,1.91,4.56C257.712,153.45,256.57,153.677,255.237,153.839z"/>
						<path style="fill-rule:evenodd;clip-rule:evenodd;fill:#000508;" d="M239.372,186.273c-2.95-0.998-4.944-3.41-5.189-6.251
							C235.166,182.754,237.697,184.146,239.372,186.273z"/>
						<path style="fill-rule:evenodd;clip-rule:evenodd;fill:#020307;" d="M231.817,163.975c0.148-0.536-0.319-1.2,0.392-1.315
							c0.642-0.104,0.624,0.569,0.775,0.996c0.297,0.838,0.714,1.642,0.702,2.563c-0.005,0.37-0.059,0.749-0.494,0.837
							c-0.46,0.094-0.867-0.09-0.967-0.56C232.041,165.626,231.936,164.738,231.817,163.975z"/>
						<path style="fill-rule:evenodd;clip-rule:evenodd;fill:#121212;" d="M273.208,164.909c-0.336,0.956-0.634,1.928-1.026,2.859
							c-0.148,0.352-0.472,0.755-0.983,0.493c-0.458-0.235-0.494-0.683-0.313-1.09c0.387-0.874,0.82-1.727,1.253-2.579
							c0.166-0.326,0.167-0.942,0.789-0.66C273.329,164.115,273.243,164.524,273.208,164.909z"/>
						<path style="fill-rule:evenodd;clip-rule:evenodd;fill:#171717;" d="M248.776,130.11c0.115-0.839-0.593-1.565-0.311-2.596
							c1.06,1.246,1.962,2.382,1.52,4.129c-0.964-0.278-0.792-1.149-1.241-1.587C248.744,130.054,248.776,130.11,248.776,130.11z"/>
						<path style="fill-rule:evenodd;clip-rule:evenodd;fill:#000006;" d="M254.577,152.489c-0.945,0.302-1.868,0.596-2.85,0.91
							C252.202,151.397,253.033,151.154,254.577,152.489z"/>
						<path style="fill-rule:evenodd;clip-rule:evenodd;fill:#000004;" d="M323.929,83.216c2.491,2.8,2.649,6.162,2.311,9.601
							c-0.252,2.557-0.646,5.106-1.57,7.525c-0.199,0.518-0.413,1.401-1.077,1.247c-0.84-0.196-0.555-1.12-0.419-1.694
							c0.728-3.083,1.619-6.121,1.756-9.326C325.035,88.048,324.883,85.59,323.929,83.216z"/>
						<path style="fill-rule:evenodd;clip-rule:evenodd;fill:#000005;" d="M254.428,55.19c-4.906,1.39-8.251,4.715-11.54,8.157
							c-0.69,0.722-1.677,2.282-2.395,1.602c-0.88-0.834,0.597-1.93,1.227-2.74c2.724-3.5,6.086-6.092,10.597-6.871
							c0.412-0.071,0.831-0.112,1.249-0.144C253.852,55.173,254.141,55.19,254.428,55.19z"/>
						<path style="fill-rule:evenodd;clip-rule:evenodd;fill:#000003;" d="M253.673,81.497c-0.057,2.653-2.073,5.147-4.717,5.866
							C250.357,85.04,252.607,83.743,253.673,81.497z"/>
						<path style="fill-rule:evenodd;clip-rule:evenodd;fill:#000005;" d="M179.147,245.747c0.883,0.032,1.282-0.051,1.473,0.357
							c0.174,0.374,0.036,0.735-0.266,0.955c-2.342,1.703-5.027,2.662-7.754,3.52c-0.294,0.093-0.564-0.093-0.76-0.356
							c-0.24-0.326-0.091-0.648,0.145-0.773C174.501,248.124,177.035,246.834,179.147,245.747z"/>
						<path style="fill-rule:evenodd;clip-rule:evenodd;fill:#000004;" d="M191.432,302.641c0-1.252-0.005-2.504,0.003-3.756
							c0.001-0.282-0.045-0.649,0.367-0.68c0.385-0.027,0.487,0.31,0.501,0.601c0.182,3.961,1.227,7.777,1.931,11.651
							c0.066,0.366,0.228,0.903-0.309,1.09c-0.635,0.222-0.794-0.361-1.021-0.752C191.436,308.265,191.366,305.446,191.432,302.641z
							"/>
						<path style="fill-rule:evenodd;clip-rule:evenodd;fill:#000004;" d="M236.306,94.292c1.456,3.973-0.756,11.064-3.954,12.28
							C234.677,102.702,235.271,98.626,236.306,94.292z"/>
						<path style="fill-rule:evenodd;clip-rule:evenodd;fill:#000003;" d="M262.782,106.974c1.583-3.811,3.526-7.49,3.732-12.107
							C268.082,97.985,265.854,105.086,262.782,106.974z"/>
						<path style="fill-rule:evenodd;clip-rule:evenodd;fill:#000003;" d="M307.156,121.616c-0.872,1.315-6.088,7.163-6.668,7.476
							C300.287,126.846,304.105,122.566,307.156,121.616z"/>
						<path style="fill-rule:evenodd;clip-rule:evenodd;fill:#000004;" d="M287.906,113.973c-0.772-2.225,0.674-6.001,2.936-7.494
							C289.723,108.88,289.356,111.57,287.906,113.973z"/>
						<path style="fill-rule:evenodd;clip-rule:evenodd;fill:#000005;" d="M211.666,225.961c-0.972-0.135-2.098-0.271-3.214-0.462
							c-0.308-0.052-0.805-0.026-0.778-0.541c0.023-0.434,0.436-0.56,0.778-0.609c1.715-0.243,3.432-0.491,5.155-0.665
							c6.086-0.612,11.595-2.725,16.579-6.255c0.331-0.234,0.7-0.926,1.156-0.386c0.44,0.521-0.264,0.817-0.557,1.123
							C225.623,223.573,218.948,225.29,211.666,225.961z"/>
						<path style="fill-rule:evenodd;clip-rule:evenodd;fill:#000005;" d="M89.961,208.428c2.519,1.754,5.014,3.374,7.739,4.582
							c1.802,0.799,3.639,1.517,5.461,2.268c1.105,0.456,2.216,0.91,3.177,1.639c0.312,0.237,0.839,0.422,0.669,0.936
							c-0.186,0.568-0.724,0.268-1.089,0.239c-0.532-0.042-1.082-0.14-1.575-0.336c-5.137-2.043-10.046-4.484-14.145-8.296
							C89.994,209.27,89.703,209.095,89.961,208.428z"/>
						<path style="fill-rule:evenodd;clip-rule:evenodd;fill:#000004;" d="M294.549,273.457c0.291,0.102,0.498,0.108,0.56,0.205
							c2.178,3.51,3.64,7.27,3.823,11.44c0.025,0.569,0.349,1.563-0.52,1.633c-0.749,0.06-0.81-0.94-0.94-1.539
							c-0.427-1.988-0.683-4.017-1.166-5.989C295.841,277.313,295.172,275.467,294.549,273.457z"/>
						<path style="fill-rule:evenodd;clip-rule:evenodd;fill:#000004;" d="M308.569,340.176c3.502-1.277,7.006-2.552,10.505-3.842
							c0.37-0.135,0.739-0.208,0.97,0.136c0.316,0.474-0.075,0.767-0.395,1.044c-1.176,1.016-2.634,1.43-4.087,1.763
							c-2.26,0.522-4.549,0.911-6.826,1.356C308.681,340.48,308.624,340.329,308.569,340.176z"/>
						<path style="fill-rule:evenodd;clip-rule:evenodd;fill:#242626;" d="M320.519,333.938c-2.249,1.688-4.501,1.948-6.858,2.722
							C315.275,335.367,318.581,333.994,320.519,333.938z"/>
						<path style="fill-rule:evenodd;clip-rule:evenodd;fill:#C4C4C4;" d="M216.316,295.056c-0.15,1.128-0.707,1.932-1.909,1.957
							c-1.2,0.026-1.938-0.743-1.968-1.877c-0.029-1.141,0.712-1.939,1.877-1.979C215.505,293.115,216.107,293.919,216.316,295.056z
							"/>
						<path style="fill-rule:evenodd;clip-rule:evenodd;fill:#C4C4C4;" d="M221.257,257.505c-1.22-0.167-1.875-0.869-1.833-2.031
							c0.043-1.166,0.775-1.921,1.948-1.86c1.141,0.059,1.865,0.81,1.814,2C223.137,256.794,222.382,257.387,221.257,257.505z"/>
						<path style="fill-rule:evenodd;clip-rule:evenodd;fill:#C4C4C4;" d="M211.404,342.732c-1.198-0.184-1.909-0.886-1.845-2.063
							c0.058-1.076,0.792-1.83,1.88-1.815c1.15,0.016,1.93,0.734,1.91,1.953C213.329,342.019,212.555,342.613,211.404,342.732z"/>
						<path style="fill-rule:evenodd;clip-rule:evenodd;fill:#C10016;" d="M250.969,170.331c-0.359,0.033-1.249,0.164-2.14,0.182
							c-0.573,0.012-1.38,0.432-1.675-0.076c-0.358-0.614,0.155-1.384,0.468-1.988c1.51-2.913,7.803-4.031,10.275-1.9
							c0.656,0.565,0.179,0.72-0.199,1.025C256.413,168.607,253.696,169.784,250.969,170.331z"/>
						<path style="fill-rule:evenodd;clip-rule:evenodd;fill:#FFFFFF;" d="M242.871,159.796c5.634,1.31,11.105,2.102,16.725,1.156
							C254.919,164.41,244.337,163.842,242.871,159.796z"/>
						<path style="fill-rule:evenodd;clip-rule:evenodd;fill:#20201E;" d="M114.997,208.295c1.051-2.876,2.025-5.735,3.032-8.526
							c2.087,0.665,3.472,1.128,4.377,1.441c-0.833,2.781-1.686,5.757-2.686,8.958c-0.517,1.304-1.994,1.943-3.298,1.425
							C115.117,211.077,114.479,209.601,114.997,208.295L114.997,208.295z M120.495,193.407c3.793-8.923,8.945-16.601,19.688-21.051
							c4.299-1.781,4.374-1.465,9.086-2.067l-4.322,2.047c-12.521,6.076-17.081,12.982-20.42,22.287L120.495,193.407z"/>
						<path style="fill-rule:evenodd;clip-rule:evenodd;fill:#D98B58;" d="M235.412,137.457c-0.182-0.028-0.341-0.061-0.472-0.099
							c-1.783-0.528-1.502-0.67-2.622-2.882c-0.724,0.513-1.436,1.042-2.154,1.562c0.433-1.557,1.704-2.335,2.728-3.563
							c-0.593,0.098-1.058,0.174-1.457,0.241c-0.236-0.135-0.23-0.197-0.094-0.287c1.135-0.754,2.413-1.044,3.744-1.087
							c1.736-0.057,3.476-0.12,5.212-0.058c3.497,0.125,4.639,0.994,5.792,4.212c0.32,0.896-0.868,2.667-1.792,2.675
							c-0.249,0.002-0.498-0.024-0.575-0.299c-0.056-0.199-0.043-0.388,0.039-0.562c-0.316,0.025-0.922,0.07-1.678,0.117
							c-0.192,0.075-0.439,0.135-0.594,0.169c-1.708,0.385-3.439,0.517-5.172,0.174
							C235.949,137.696,235.518,137.651,235.412,137.457L235.412,137.457z M241.752,127.611c-1.566,0.093-3.107-0.154-4.626-0.457
							c-2.959-0.592-5.735-0.657-8.022,2.584c0.125-1.076,0.291-1.982,0.519-2.738c0.818-2.718,2.43-3.489,5.783-3.266
							c2.675,0.178,5.325,0.697,7.997,0.966c0.375,0.038,0.573,0.14,0.667,0.287c0.124,0.194,0.068,0.469-0.001,0.782
							C243.799,127.005,242.954,127.54,241.752,127.611L241.752,127.611z M247.163,124.786c-1.13-4.387-1.707-9.814-0.665-13.468
							c-5.038,0.147-10.115,0.748-15.219,1.658c-0.961,0.171-1.56,0.721-1.71,1.796c-0.267,1.899-0.76,3.77-0.974,5.673
							c-0.259,2.306-0.484,4.616-0.725,6.923c-0.456,4.366-0.969,8.724-1.875,13.029c-0.743,3.538-1.479,7.089-0.934,10.707
							c1.45,9.628,3.86,19.023,7.262,28.148c0.768,2.059,1.507,4.195,3.12,5.817c1.442,1.452,3.334,2.643,5.445,3.504
							c-0.164-1.594-0.157-3.801,0.357-6.662c0.416-2.309,1.352-3.545,2.264-4.205c-0.639-0.452-1.17-1.09-1.618-1.951
							c-1.868-1.01-2.943-2.395-2.943-3.445c0-0.63,0.631-1.212,1.358-1.817c0.052-0.307,0.284-0.665,0.697-1.095
							c0.776-0.809,1.277-1.642,1.446-2.542c-0.019-0.614-0.065-1.325-0.177-2.098c-0.061-0.184-0.135-0.372-0.221-0.563
							c-0.684-1.522-1.208-3.116-1.79-4.683c-0.109-0.297-0.287-0.596-0.381-0.899c-1.727-2.874-0.2-3.611,0.959-3.611
							c1.217,0,3.922,1.082,7.437,1.352c2.814,0.217,7.1-3.637,8.699-5.186c-0.009-0.201-0.035-0.405-0.071-0.612
							c-2.187,0.044-8.933,0.117-12.414-0.557c-0.332-0.064-0.619-0.145-0.866-0.239c0.145,0.674,0.439,1.343,0.842,2.025
							c0.351,0.593,0.71,1.182,0.943,1.852c-1.785-1.308-3.129-2.93-3.771-5.113c-1.231,1.465-0.272,2.655,0.58,3.866
							c-1.628-0.346-2.515-1.81-1.973-3.393c0.226-0.663,0.599-1.333,1.071-1.847c3.479-3.784,4.674-8.674,6.325-13.301
							c0.697-1.954-0.188-4.138-0.45-6.208c-0.059-0.469-0.161-0.933-0.145-1.433c0.776,1.079,0.856,2.462,1.518,3.582
							c-0.075-0.642-0.212-1.257-0.424-1.832C247.791,127.007,247.458,125.932,247.163,124.786L247.163,124.786z M232.984,163.656
							c0.297,0.838,0.714,1.642,0.702,2.563c-0.005,0.37-0.059,0.749-0.494,0.837c-0.46,0.094-0.867-0.09-0.967-0.56
							c-0.185-0.871-0.289-1.759-0.408-2.521c0.148-0.536-0.319-1.2,0.392-1.315C232.851,162.556,232.833,163.229,232.984,163.656
							L232.984,163.656z M251.727,153.398c0.475-2.001,1.306-2.244,2.85-0.91C253.632,152.79,252.709,153.085,251.727,153.398
							L251.727,153.398z M234.184,180.023c0.982,2.731,3.514,4.124,5.189,6.251C236.422,185.276,234.428,182.863,234.184,180.023z"
							/>
						<path style="fill-rule:evenodd;clip-rule:evenodd;fill:#EDCBAA;" d="M273.102,272.5c5.375-2.368,2.311,2.044,0.329,2.672
							c-0.482,0.154-0.965,0.307-1.447,0.46c-0.234,0.79-0.326,1.777-0.043,3.029c0.442,1.961,1.063,3.123,1.597,3.805
							c0.283-0.094,0.549-0.182,0.795-0.259c5.049-1.58,4.08,0.9,2.006,1.653c-0.623,0.227-1.343,0.477-2.112,0.732
							c-0.421,1.44-0.845,3.849,0.42,5.293c0.771,0.882,1.407,1.471,1.892,1.86c1.112-0.313,2.219-0.656,3.318-0.99
							c0.353,1.912-0.11,2.444-2.1,2.676c0.313,1.327,1.342,3.596,4.731,4.161c4.868,0.81,16.227-5.68,16.227-5.68l3.597-6.582
							c-1.169-6.07-3.184-11.81-6.489-17.112c-3.082-4.943-5.372-10.288-7.466-15.718c-0.954-2.477-1.218-4.95-0.765-7.582
							c0.241-1.405,0.751-2.849,0.373-4.436c-3.992,1.238-6.614,3.634-7.349,7.705c-0.665,3.691-0.484,7.412-0.009,11.123
							c0.114,0.893,0.58,1.111,1.379,1.25c1.915,0.334,3.768,0.87,5.191,2.376c-0.473,0.456-0.792,0.181-1.119,0.102
							c-3.464-0.851-6.931-0.725-10.315,0.278c-1.542,0.457-3.075,0.943-4.607,1.438c-0.85,3.602,0.885,7.019,1.887,7.686
							C273.052,272.461,273.078,272.48,273.102,272.5L273.102,272.5z M296.306,279.207c-0.465-1.895-1.134-3.74-1.757-5.75
							c0.291,0.102,0.498,0.108,0.56,0.205c2.178,3.51,3.64,7.27,3.823,11.44c0.025,0.569,0.349,1.563-0.52,1.633
							c-0.749,0.06-0.81-0.94-0.94-1.539C297.045,283.208,296.789,281.18,296.306,279.207z"/>
						<path style="fill-rule:evenodd;clip-rule:evenodd;fill:#D98B58;" d="M285.328,251.753c-0.896-3.469-0.216-7.123,1.347-10.809
							c-3.266,1.335-5.406,3.63-6.059,7.244c-0.665,3.691-0.484,7.412-0.009,11.123c0.114,0.893,0.58,1.111,1.379,1.25
							c1.657,0.289,3.268,0.729,4.594,1.818C286.425,259.528,286.064,254.606,285.328,251.753z"/>
						<path style="fill-rule:evenodd;clip-rule:evenodd;fill:#C4C4C4;" d="M293.396,342.063
							c-2.085-0.995-10.019,11.017-9.935,10.596c1.71-8.436,8-12.939,8.382-21.516c0.272-6.108-2.285-14.925-0.913-25.098
							c-0.069-0.809,0.063-1.757-1.267-1.697c-2.215,0.098-4.358,0.842-6.598,0.688c-0.358-0.025-0.501,0.313-0.626,0.565
							c-0.944,1.903-2.604,2.173-4.436,1.864c-1.829-0.307-3.666-0.645-5.45-1.147c-1.923-0.542-3.363-1.074-4.42-1.739
							c0.585,4.205,3.435,5.697,8.268,7.078c7.572,2.163,7.572,3.515,7.572,3.515l-0.811,23.528l-13.522,23.528l-0.352,1.515
							l-0.138,0.597c2.95-0.25,29.609-3.915,30.091-5.925C299.353,357.954,295.704,343.163,293.396,342.063z"/>
						<path style="fill-rule:evenodd;clip-rule:evenodd;fill:#C4C4C4;" d="M357.362,305.041c-8.074,3.44-18.643,4.137-29.508,4.004
							c0.462,4.082,0.752,8.165,0.533,12.249c-0.079,1.485,0.476,1.967,1.795,2.242c2.596,0.541,2.98,0.341,5.502-0.298
							c4.784-1.214,9.17-3.094,13.2-5.557c4.194-2.563,8.003-5.76,11.477-9.493c2.509-2.697,4.494-5.654,5.608-8.988
							C363.635,301.711,360.714,303.612,357.362,305.041z"/>
						<path style="fill-rule:evenodd;clip-rule:evenodd;fill:#C4C4C4;" d="M305.264,239.653c-1.108,3.972-0.874,8.035-0.816,12.082
							c0.269-0.903,0.435-1.829,0.65-2.744c1.313-5.589,3.446-10.799,6.268-15.693L305.264,239.653z"/>
						<path style="fill-rule:evenodd;clip-rule:evenodd;fill:#C4C4C4;" d="M303.008,246.408c0.669-1.733,0.725-3.412,0.911-5.057
							c0.013-0.116,0.026-0.23,0.042-0.341l-1.391,1.448C302.711,243.738,302.856,245.043,303.008,246.408z"/>
						<path style="fill-rule:evenodd;clip-rule:evenodd;fill:#C4C4C4;" d="M301.12,256.395c-0.226-4.223-0.12-8.454,0.436-12.682
							c-0.95,1.676-4.282,7.497-7.909,13.215c1.052,2.1,2.073,3.96,3.341,6.396c0.454,0.873,0.888,1.777,1.654,2.468
							C300.981,262.47,301.336,260.444,301.12,256.395z"/>
						<path style="fill-rule:evenodd;clip-rule:evenodd;fill:#C4C4C4;" d="M321.451,106.898c-1.35,0.053-2.783,0.118-4.551-0.434
							c2.411-1.129,4.53-1.549,6.748-1.519c0.679,0.009,1.191,0.017,1.609-0.751c5.255-9.663,4.855-20.68-3.719-28.234
							c-2.116-1.865-4.348-3.277-6.69-4.198c5.77,17.099,3.849,28.345-1.595,30.475c-1.933,0.756-3.759,1.251-5.36,1.574
							c0.334,1.187,0.695,2.354,1.097,3.51c1.792,5.168,3.736,10.271,7.478,14.421c2.508,2.782,5.455,4.093,9.329,2.219
							c1.058,6.721-0.845,11.799-7.053,14.912c0.709,0.022,1.34-0.042,1.941-0.211c10.716-3.024,15.902-18.478,9.146-27.348
							C327.751,108.583,325.151,106.753,321.451,106.898L321.451,106.898z M324.669,100.342c-0.199,0.518-0.413,1.401-1.077,1.247
							c-0.84-0.196-0.555-1.12-0.419-1.694c0.728-3.083,1.619-6.121,1.756-9.326c0.107-2.522-0.046-4.98-1-7.354
							c2.491,2.8,2.649,6.162,2.311,9.601C325.987,95.374,325.593,97.923,324.669,100.342z"/>
						<path style="fill-rule:evenodd;clip-rule:evenodd;fill:#C4C4C4;" d="M293.899,103.922c3.643,3.437,4.535,5.925,2.857,10.214
							c-1.479,3.78-4.057,7.46-5.852,9.766c0.568,0.483,1.133,0.98,1.691,1.489c2.852,2.594,5.4,5.471,8.004,8.308
							c-1.89-4.066-4.852-7.344-7.8-10.645c2.27,1.228,4.285,2.73,5.833,4.727c1.55,2,2.938,4.124,4.485,6.322
							c1.887-4.206,3.669-8.259,5.533-12.274c0.348-0.748,0.119-1.195-0.255-1.769C304.239,113.674,299.343,108.288,293.899,103.922
							L293.899,103.922z M300.488,129.092c-0.201-2.247,3.617-6.526,6.668-7.476C306.284,122.932,301.068,128.779,300.488,129.092z"
							/>
						<path style="fill-rule:evenodd;clip-rule:evenodd;fill:#FFFFFF;" d="M183.984,195.809c0-8.36-1.595-16.122-14.718-28.936
							c-2.197-0.31-4.41-0.52-6.64-0.628c-4.001-0.194-8.056-0.057-12.167,0.431c-7.583,0.9-15.055,2.299-22.044,5.563
							c-3.366,1.572-6.32,3.617-8.224,6.971c-2.485,4.379-3.719,7.35-5.813,11.928c-0.439,0.96-0.426,1.362,0.689,1.766
							c11.041,4.002,18.906,6.492,26.601,8.061c9.962,2.032,19.643,2.521,35.57,2.753c1.859-0.018,3.737-0.046,5.628-0.091
							C183.457,202.404,183.984,200.108,183.984,195.809L183.984,195.809z M144.948,172.337
							c-12.521,6.076-17.081,12.982-20.42,22.287l-4.033-1.216c3.793-8.923,8.945-16.601,19.688-21.051
							c4.299-1.781,4.374-1.465,9.086-2.067L144.948,172.337z"/>
						<path style="fill-rule:evenodd;clip-rule:evenodd;fill:#FFFFFF;" d="M162.335,205.349c-7.245-0.352-14.446-0.956-21.564-2.015
							c-9.477-1.41-18.808-3.628-27.895-7.135c-0.897-0.346-1.161,0.042-1.418,0.733c-0.977,2.638-1.998,5.26-2.943,7.909
							c-1.143,3.204-0.975,3.626,1.965,5.509c0.554,0.354,1.131,0.674,1.717,0.974c4.142,2.119,8.599,3.328,13.103,4.302
							c3.722,0.806,7.454,1.507,11.195,2.112c14.554,2.356,29.253,3.273,44.035,3.32c0.044,0,0.089,0,0.134,0.001
							c0.165-1.083,0.445-2.969,0.885-6.049c0.61-4.264,0.152-7.766-0.114-9.246C175.073,205.835,168.706,205.658,162.335,205.349
							L162.335,205.349z M122.406,201.211c-0.833,2.781-1.686,5.757-2.686,8.958c-0.517,1.304-1.994,1.943-3.298,1.425
							c-1.304-0.517-1.942-1.994-1.424-3.299c1.051-2.876,2.025-5.735,3.032-8.526C120.117,200.434,121.501,200.897,122.406,201.211
							z"/>
						<path style="fill-rule:evenodd;clip-rule:evenodd;fill:#FFFFFF;" d="M90.657,201.321c0.607,7.249,13.245,14.937,44.984,20.464
							c1.555,0.271,3.155,0.537,4.803,0.797c40.594,6.41,81.188,3.025,92.697-9.239c-0.235-0.232-0.481-0.454-0.734-0.664
							c-4.766-3.936-10.485-5.508-16.48-7.663c0.69,3.262,1.182,6.213,1.968,9.083c0.556,2.035-0.13,3.369-1.673,4.495
							c-1.829,1.335-3.944,2.006-6.105,2.528c-8.339,2.011-16.855,2.373-25.374,2.49c-16.107,0.22-32.144-0.836-48.074-3.259
							c-0.239-0.036-0.478-0.073-0.718-0.11c-7.409-1.158-15.756-2.951-22.739-5.616c-2.697-1.029-5.314-2.22-7.372-4.344
							c-1.262-1.303-1.788-2.689-1.045-4.551c1.229-3.082,2.254-6.246,3.423-9.537c-5.141,0.813-8.935,1.773-13.685,3.492
							C93.205,200.167,91.9,200.684,90.657,201.321z"/>
						<path style="fill-rule:evenodd;clip-rule:evenodd;fill:#C4C4C4;" d="M207.571,242.851c0.743-1.567,1.405-3.174,2.07-4.776
							c1.203-2.895,2.812-5.573,4.701-8.421c-7.644,1.366-15.043,1.813-22.231,2.251c1.317,13.332,3.441,26.505,0.176,39.749
							c2.504-3.863,4.128-8.167,6.471-12.418c0.422,0.909,0.16,1.406,0.047,1.925c-0.94,4.382-2.769,8.401-4.998,12.258
							c-0.329,0.567-0.64,1.111-0.77,1.792c-1.054,5.474-2.085,10.951-3.267,16.397c-1.435,6.616-0.963,13.092,1.055,19.505
							c1.372,4.357,2.604,8.738,2.477,13.376c-0.09,3.354-1.071,6.421-2.905,9.244c0.874-3.184,1.582-6.362,1.231-9.697
							c-0.343-3.252-0.929-6.432-2.283-9.873c-1.342,8.481-4.981,23.83-8.534,31.067c2.732-0.299,4.215-0.184,7.826-0.613
							c3.892-15.177,6.064-28.98,5.624-32.722c-0.44-3.741-0.041-0.35-0.063-0.53c-0.06,0.075-0.146,0.139-0.273,0.183
							c-0.635,0.222-0.794-0.361-1.021-0.752c-1.468-2.53-1.538-5.349-1.472-8.154c0-1.252-0.005-2.504,0.003-3.756
							c0.001-0.282-0.045-0.649,0.367-0.68c0.385-0.027,0.487,0.31,0.501,0.601c0.151,3.287,0.896,6.476,1.548,9.679
							c-1.175-9.818-2.771-25.291,2.033-32.018c5.408-7.572,6.22-25.15,6.22-25.15s1.116,0.479,8.118,0.455
							c0.121-0.869,0.243-1.739,0.367-2.607c0.152-1.075-0.053-1.509-1.222-1.506c-1.129,0.004-2.261-0.221-3.389-0.37
							c-0.542-0.072-1.1-0.196-1.22-0.863c-0.107-0.602,0.086-1.098,0.721-1.26C206.699,244.854,207.118,243.811,207.571,242.851z"
							/>
						<path style="fill-rule:evenodd;clip-rule:evenodd;fill:#C4C4C4;" d="M242.604,232.078c-3.366,4.813-7.215,9.139-12.304,12.215
							c-4.892,2.957-10.294,3.77-15.888,3.749c-0.87-0.004-1.564-0.09-1.72,1.185c-0.103,0.842-0.208,1.684-0.315,2.524
							c1.696-0.025,3.666-0.078,5.953-0.165c14.333-0.54,25.151-14.333,25.151-14.333s0,0,5.139,6.76
							c4.986,6.563,16.343,9.048,28.133,13.641c-0.039-0.619-0.135-1.378-0.252-2.324c-0.093-0.743-0.323-1.157-1.055-1.424
							c-5.288-1.93-8.798-4.284-14.206-5.883c-3.314-0.98-6.078-2.774-8.511-5.181c-3.649-3.607-6.367-7.88-8.931-12.482
							C243.342,231.018,242.975,231.549,242.604,232.078z"/>
						<path style="fill-rule:evenodd;clip-rule:evenodd;fill:#C4C4C4;" d="M216.117,202.423c2.684,0.979,5.372,1.945,7.745,2.802
							c-1.233-1.317-2.59-2.839-4.027-4.28c-1.103-1.105-2.394-1.992-3.746-2.778c-0.592-0.344-1.271-0.589-1.717,0.083
							C214.013,198.79,215.517,202.206,216.117,202.423z"/>
						<path style="fill-rule:evenodd;clip-rule:evenodd;fill:#D98B58;" d="M264.611,203.785
							c5.689-8.828,10.029-19.529,13.271-29.216c-6.185,9.245-13.435,17.581-22.126,24.71c-1.827,1.499-3.846,1.859-6.071,1.45
							c-3.179-0.584-6.035-1.918-8.662-3.78c-0.389-0.276-0.684-0.798-1.306-0.693c-0.122,4.644,2.554,8.192,4.5,11.987
							c0.542,1.058,1.934,1.196,3.05,1.248c1.083,0.051,0.757-1.169,1.16-1.761c0.592-0.867,0.614-2.109,1.71-2.758
							c0.415,1.676-0.314,3.119-0.535,4.717c3.579-0.219,6.912-0.639,9.859-2.69C261.12,205.846,262.853,204.788,264.611,203.785z"
							/>
						<path style="fill-rule:evenodd;clip-rule:evenodd;fill:#D98B58;" d="M274.716,118.871c4.184,2.456,7.778,6.477,10.357,9.934
							c0.365,0.492,0.712,0.972,1.036,1.436c0.051-0.368,0.103-0.737,0.158-1.105c0.196-1.295,0.425-2.587,0.685-3.88
							c0.217-1.076,0.091-1.681-0.852-2.347c-3.291-2.323-6.713-4.403-10.379-6.072c-9.524-4.335-19.298-5.808-29.224-5.52
							c-0.071,0.251-0.136,0.509-0.192,0.775C257.002,111.354,267.259,114.491,274.716,118.871z"/>
						<path style="fill-rule:evenodd;clip-rule:evenodd;fill:#D98B58;" d="M299.258,153.374c0.7,1.116,0.427,2.15-0.647,3.218
							c-0.153-1.113,0.075-2.251-0.989-2.786c-0.614-0.309-1.292-0.244-1.923,0.019c-0.889,0.371-1.339,0.694-0.463,1.737
							c1.395,1.663,1.009,3.601-0.575,4.489c1.636-0.111,3.382-0.954,4.757-1.995c-0.057-0.364,0.123-0.769,0.365-1.139
							c0.725-1.105,1.364-2.244,1.75-3.524c0.284-0.943,0.388-1.886,0.232-2.843c-0.358-2.218-2.216-3.081-4.136-1.924
							c-1.271,0.767-2.125,1.898-2.853,3.518C296.678,151.645,298.239,151.751,299.258,153.374z"/>
					</g>
					<path style="fill-rule:evenodd;clip-rule:evenodd;fill:#C4C4C4;" d="M324.473,307.176c-1.871,1.401-8.156,2.339-16.569,2.098
						c0.666,11.348,0.022,22.775-2.365,34.32c4.927-1.153,9.516-2.236,14.11-3.295c0.737-0.17,1.059-0.629,1.313-1.296
						c0.889-2.358,1.737-4.743,2.099-7.231C324.245,323.603,324.551,315.397,324.473,307.176L324.473,307.176z M313.66,336.659
						c1.615-1.292,4.921-2.665,6.858-2.722C318.27,335.625,316.018,335.886,313.66,336.659L313.66,336.659z M308.569,340.176
						c3.502-1.277,7.006-2.552,10.505-3.842c0.37-0.135,0.739-0.208,0.97,0.136c0.316,0.474-0.075,0.767-0.395,1.044
						c-1.176,1.016-2.634,1.43-4.087,1.763c-2.26,0.522-4.549,0.911-6.826,1.356C308.681,340.48,308.624,340.329,308.569,340.176z"
						/>
				</g>
				<g>
					<path style="fill-rule:evenodd;clip-rule:evenodd;fill:#911B19;" d="M240.936,226.221
						c-11.626,3.32-20.249,11.206-29.691,18.146c1.273,0.323,2.24-0.089,3.213-0.24c6.333-0.988,12.529-2.282,17.019-7.505
						c1.17-1.361,2.584-2.51,3.796-3.838C237.192,230.68,239.274,228.706,240.936,226.221z"/>
					<path style="fill-rule:evenodd;clip-rule:evenodd;fill:#911B19;" d="M248.471,228.685c2.088,5.664,5.801,9.911,11.348,12.308
						c3.92,1.694,7.965,3.087,11.751,5.313c-2.281-2.878-4.466-5.844-6.868-8.618c-4.096-4.727-8.552-9.066-14.358-11.71
						c-0.492-0.225-1.09-0.841-1.596-0.32c-0.482,0.495-0.694,1.258-0.602,2.003C248.189,228.01,248.346,228.348,248.471,228.685z"
						/>
					<path style="fill-rule:evenodd;clip-rule:evenodd;fill:#20201E;" d="M109.523,213.327c-2.908-1.993-10.454-6.058-9.947-10.521
						c5.018,4.526,4.728,4.504,11.283,7.869c0.807,0.555,1.687,1.39,1.131,2.197C111.435,213.679,110.33,213.883,109.523,213.327z"
						/>
				</g>
			</g>
			<path style="fill-rule:evenodd;clip-rule:evenodd;fill:#20201E;" d="M217.657,259.028c5.604-1.696,5.152-1.338,9.398-4.394
				l-0.335,1.405C224.963,260.135,220.998,259.605,217.657,259.028z"/>
			<path style="fill-rule:evenodd;clip-rule:evenodd;fill:#20201E;" d="M210.625,299.053c5.604-1.695,5.152-1.338,9.397-4.395
				l-0.334,1.405C217.931,300.161,213.967,299.629,210.625,299.053z"/>
			<path style="fill-rule:evenodd;clip-rule:evenodd;fill:#20201E;" d="M207.921,344.757c5.604-1.695,5.152-1.339,9.397-4.395
				l-0.334,1.405C215.227,345.864,211.263,345.333,207.921,344.757z"/>
		</g>
	</g>
</g>
</svg>
